<?xml version="1.0" standalone="no"?>
<!DOCTYPE svg PUBLIC "-//W3C//DTD SVG 20010904//EN"
 "http://www.w3.org/TR/2001/REC-SVG-20010904/DTD/svg10.dtd">
<svg version="1.0" xmlns="http://www.w3.org/2000/svg"
 width="270.000000pt" height="270.000000pt" viewBox="0 0 270.000000 270.000000"
 preserveAspectRatio="xMidYMid meet">
<metadata>
Created by potrace 1.14, written by Peter Selinger 2001-2017
</metadata>
<g transform="translate(0.000000,270.000000) scale(0.100000,-0.100000)"
fill="#000000" stroke="none">
<path d="M1260 2579 c-120 -9 -200 -23 -295 -54 -224 -74 -356 -189 -469 -412
-30 -61 -31 -63 -12 -63 12 0 12 -6 3 -36 -8 -26 -8 -37 1 -43 9 -5 9 -29 2
-91 -6 -47 -7 -158 -3 -247 l6 -163 -35 0 c-56 0 -91 -53 -92 -140 -1 -102 72
-217 154 -241 36 -11 38 -14 60 -93 50 -182 135 -363 231 -491 42 -56 54 -98
64 -227 l7 -87 -66 -48 c-36 -26 -103 -69 -148 -95 -49 -28 -74 -48 -63 -48
24 0 181 88 238 132 l37 30 0 -31 c0 -50 18 -44 25 9 4 27 11 50 17 50 6 0 39
-14 74 -31 148 -70 277 -94 472 -86 128 5 224 27 307 71 17 9 35 16 42 16 6 0
14 6 17 13 3 6 5 -4 5 -23 -2 -62 1 -81 10 -76 4 3 32 -12 61 -34 45 -34 80
-50 80 -37 0 2 -29 25 -65 51 l-66 48 6 92 c15 242 13 234 54 295 52 76 83
140 119 241 30 87 66 237 77 322 4 34 11 49 25 53 29 9 84 83 105 140 11 30
19 76 19 116 0 79 -23 125 -77 154 -21 11 -39 29 -41 40 -3 11 -9 112 -15 225
-6 113 -17 251 -23 307 -9 79 -9 108 0 129 11 23 9 31 -22 73 -154 210 -456
316 -826 290z m496 -205 c45 -19 186 -111 228 -149 17 -16 33 -43 38 -68 5
-23 11 -161 14 -307 2 -146 5 -297 7 -336 2 -69 2 -71 -18 -58 -11 7 -56 23
-100 35 -65 18 -106 22 -220 22 -150 0 -236 -15 -286 -52 -14 -11 -42 -23 -62
-26 -29 -6 -42 -2 -69 18 -68 52 -231 75 -401 57 -100 -10 -197 -38 -227 -65
-9 -8 -19 -15 -22 -15 -3 0 -8 51 -11 113 -3 61 -11 196 -18 299 l-13 186 34
69 c40 82 161 208 233 242 43 21 58 23 135 18 48 -3 143 -12 210 -21 137 -17
270 -10 352 19 45 16 110 32 141 34 9 1 34 -6 55 -15z m447 -892 c24 -21 21
-32 -7 -32 -13 0 -36 -10 -51 -22 l-28 -22 6 24 c4 14 7 30 7 37 0 18 30 44
43 37 7 -4 20 -14 30 -22z m-1017 -36 c53 -22 79 -75 78 -158 -2 -119 -47
-142 -279 -143 -198 0 -238 10 -256 62 -17 53 -15 158 5 187 20 31 39 42 108
61 74 21 287 15 344 -9z m659 10 c81 -21 112 -42 125 -82 14 -41 8 -151 -10
-183 -19 -36 -75 -46 -250 -46 -192 1 -232 11 -262 66 -30 56 -18 178 21 213
47 42 268 61 376 32z m-1352 -8 c31 -16 84 -68 70 -68 -6 0 -14 4 -17 9 -17
27 -119 18 -138 -12 -5 -7 -8 -3 -8 11 0 24 40 72 60 72 6 0 21 -5 33 -12z
m1707 -31 c-14 -6 -28 -15 -31 -20 -4 -5 -9 -4 -13 1 -8 13 22 32 49 31 17 0
17 -2 -5 -12z m40 -71 c0 -24 -7 -66 -16 -94 -16 -50 -86 -143 -99 -130 -16
15 -16 88 -1 139 16 57 73 129 100 129 12 0 16 -11 16 -44z m-1780 15 c0 -5 9
-12 19 -16 35 -11 52 -52 57 -138 3 -45 7 -88 9 -94 6 -18 -21 -16 -51 4 -30
19 -77 85 -92 131 -9 27 -8 40 8 77 11 25 26 45 35 45 8 0 15 -4 15 -9z m98
-31 c-2 -7 -10 1 -17 16 -12 27 -11 28 4 12 10 -9 16 -21 13 -28z m830 -36
c38 -99 54 -125 89 -139 56 -24 190 -38 290 -32 110 8 169 22 201 50 l22 20 0
-29 c-1 -66 -39 -285 -58 -325 -10 -24 -31 -55 -45 -68 l-26 -23 -7 38 c-16
90 -68 149 -141 160 -25 4 -80 1 -122 -5 -42 -7 -91 -15 -109 -18 l-33 -5 21
36 c23 38 20 76 -6 76 -10 0 -13 -6 -10 -18 7 -20 16 -18 -141 -27 -109 -5
-113 -5 -113 15 0 11 -4 20 -10 20 -5 0 -10 -10 -10 -23 0 -23 51 -87 69 -87
6 0 11 -4 11 -9 0 -4 -46 -11 -102 -14 -127 -7 -163 -17 -212 -62 l-38 -35
-28 20 c-40 28 -100 104 -145 180 -37 64 -117 288 -108 302 11 19 24 3 78 -92
32 -56 96 -73 275 -74 157 -1 240 15 274 53 9 10 28 52 42 92 37 110 57 114
92 23z m633 -81 c-12 -20 -14 -14 -5 12 4 9 9 14 11 11 3 -2 0 -13 -6 -23z
m-323 -396 c35 -27 -10 -144 -82 -213 -62 -58 -108 -78 -164 -69 -73 11 -232
7 -248 -6 -8 -6 -24 -9 -37 -5 -35 8 -115 83 -137 127 -33 63 -22 148 11 88
21 -40 93 -110 134 -132 34 -18 57 -21 155 -22 103 0 120 3 163 24 26 14 77
55 113 93 36 37 70 65 75 62 5 -3 9 4 9 15 0 26 -35 47 -43 26 -3 -7 -37 -24
-74 -35 -95 -31 -268 -38 -392 -16 -144 25 -138 34 17 28 151 -5 291 8 394 37
62 18 81 17 106 -2z m-473 -83 c109 -17 234 -14 324 10 55 14 62 9 31 -19 -11
-10 -17 -22 -14 -27 9 -14 -53 -65 -95 -80 -39 -14 -229 -18 -273 -6 -36 11
-88 56 -88 77 0 10 -9 26 -20 36 -28 25 -25 38 8 31 15 -3 72 -13 127 -22z
m-265 -391 l65 -67 -65 59 c-36 32 -69 62 -74 67 -7 5 -7 8 0 8 5 -1 38 -31
74 -67z"/>
<path d="M930 1746 c-36 -13 -92 -39 -125 -57 -54 -31 -60 -38 -63 -69 -4 -54
9 -67 50 -47 49 23 181 48 288 54 52 3 100 10 106 15 18 13 26 72 14 102 -16
44 -27 29 -22 -33 2 -32 0 -61 -4 -64 -5 -3 -7 15 -5 40 5 67 -14 83 -103 83
-49 0 -91 -8 -136 -24z"/>
<path d="M1482 1758 c-15 -15 -16 -69 -1 -101 11 -23 16 -25 96 -26 110 -2
233 -27 325 -65 22 -10 38 20 31 57 -6 33 -36 55 -138 104 -60 28 -93 37 -150
41 -41 2 -85 2 -98 -2 -30 -7 -48 -52 -42 -99 4 -29 3 -28 -6 5 -8 27 -8 47
-1 68 11 31 5 39 -16 18z"/>
<path d="M963 1450 c-51 -11 -103 -37 -103 -51 0 -7 7 -8 18 -4 9 4 23 9 30
12 9 4 10 -1 2 -21 -8 -22 -7 -26 8 -28 9 0 22 -2 27 -3 6 -2 18 -3 28 -4 29
-2 19 -19 -18 -31 -41 -14 -45 -33 -10 -56 35 -23 100 -21 133 3 34 25 50 83
35 124 -9 23 -9 29 3 29 19 0 18 16 -1 24 -30 11 -111 15 -152 6z"/>
<path d="M1598 1450 c-52 -6 -69 -16 -45 -26 12 -4 15 -14 10 -35 -5 -28 -4
-29 36 -29 22 0 41 -4 41 -8 0 -10 -45 -32 -65 -32 -21 0 -18 -13 8 -38 75
-70 177 -34 193 70 4 24 11 37 20 36 26 -6 18 16 -13 35 -39 22 -121 34 -185
27z"/>
</g>
</svg>
